<svg xmlns="http://www.w3.org/2000/svg" width="99.119" height="101.999" viewBox="0 0 99.119 101.999"><defs><style>.a{fill:#e9ede7;}.b{fill:#333737;}</style></defs><g transform="translate(-730.891 -12.778)"><rect class="a" width="99.119" height="101.999" transform="translate(730.891 12.779)"/><g transform="translate(732.796 14.739)"><path class="b" d="M768.422,73.595a1.183,1.183,0,0,0,1.036,1.725c.949.115,1.955-.461,1.61-1.5A1.579,1.579,0,0,0,768.422,73.595Z" transform="translate(-718.469 8.341)"/><path class="b" d="M785.25,60.72c-.461,2.913-2.606,9.66-12.881,15.181,0,0,8.281-1.688,12.42-7.361C785.71,63.941,785.71,57.807,785.25,60.72Z" transform="translate(-716.894 3.351)"/><path class="b" d="M780.862,68.832c1.379-1.688.23-3.125-1.38-2.913l-.766,1.226-.613-1.226s-.268,1.648-1.188,1.648a1.1,1.1,0,0,1-1.266-.881,7.026,7.026,0,0,1-.613.537c-.307.23-1.491-.888-.844-2.53a3.956,3.956,0,0,0-.383-3.757,2.218,2.218,0,0,0-3.642,1.667c-.154,1.841.575,2.013.729,2.627s.23,2.07-.307,2.606-1.073,0-1.3-.69c0,0-.805.92-1.112,1.3s-1.379-.766-1.686-1.457c-.92.959-1.227.231-1.955.385a1.627,1.627,0,0,0-1.073,2.07c.5,2.875,4.524,3.911,8.318,3.911S779.482,70.519,780.862,68.832Z" transform="translate(-720.327 3.519)"/><path class="b" d="M799.419,31.633c0-2.3-1.026-4.318-4.773-5.924-4.829-2.07-14.26-3.219-21.85-2.989s-22.167,1.679-25.839,9.738c-1.116,2.45-1.381,6.364.307,7.513,2.53-2.3,5.52-6.21,13.34-7.82s19.092-1.381,24.612-.69,11.731,4.37,13.341,7.591C801.777,36.291,801.719,33.243,799.419,31.633Z" transform="translate(-726.981 -10.939)"/><path class="b" d="M772.924,64.062a18.206,18.206,0,0,0,6.708-2.165c-1.476.109-3,.212-4.582.325-.8.057-1.923.058-2.386.058-1.379,0-1.332.249-3.478.4-.9.064-2.391.061-3.615.072.556-.34,1.056-.665,1.285-.791a8.574,8.574,0,0,1,4.37-.517,5.082,5.082,0,0,0,3.364-.575,3.208,3.208,0,0,1,3.25.029c1.9.805,3.306.805,3.334-.949a8.539,8.539,0,0,0-1.293-3.853c1.744,1.505,1.993,3.594,2.3,3.94a2.147,2.147,0,0,0,.191-1.573,12.343,12.343,0,0,0-2.433-5.5,19.98,19.98,0,0,0-3.8-3.566,10.192,10.192,0,0,1,1.419,3.6,1.823,1.823,0,0,1-1.227,2.11c-.959.421-1.515.45-1.974,1.418-.261.548-.546,1.61-1.725,1.783a3.232,3.232,0,0,1-2.494-.617c-2.46-2.9-4.055-2.532-4.522-1.684,0,0-.415.826.65.625a2.956,2.956,0,0,1,1.793.365,2.8,2.8,0,0,0-2.414.762,17.336,17.336,0,0,0-2.242,3.279,22.559,22.559,0,0,1,.317-7.274c-3.164,3.536-2.866,5.809-2.444,7.216.432,1.439,1.437,2.732,2.1,2.789a3.635,3.635,0,0,0,1.455-.587A40.377,40.377,0,0,0,772.924,64.062Z" transform="translate(-721.244 -0.7)"/><path class="b" d="M774.4,46.764c1.457.842,3.757.076,3.757.076s-1.15-.076-1.686-.154c.69-.076,1.227-.459,2.836-1.916-2.606,1.762-4.753,1-6.823,0A4.548,4.548,0,0,0,774.4,46.764Z" transform="translate(-716.852 -2.474)"/><path class="b" d="M732.268,14.2v98.077h95.308V14.2Zm89.213,96-4.526-23.3s.992,12.614,1.793,23.3H793.7l5.5-12.567.27-9.321s-.805,1.151-1.266,1.841c-.172,1.437-1.5,6.785-3.909,8.625-1.271.968-1.706,1.293-1.84,1.39V110.2H775.883c-3.269-3.98-8.046-10.32-8.841-14.3,2.76,3.067,9.2,10.274,12.266,11.041,4.141.461,2.454-6.9-.92-7.054s-7.513-3.067-9.047-11.346a16.87,16.87,0,0,0,3.22,1.993c-1.533-1.688-7.513-5.828-8.74-9.815-.928-3.016-.924-11.562-.245-16.6a11.422,11.422,0,0,1,2.721-2.548c-2.189.694-3.389,0,.126-1a4.518,4.518,0,0,0-2.1.324c.037-.083.073-.188.112-.255a6.527,6.527,0,0,1,3.528-3.144c.306.766.613.844,1.379.844a1.482,1.482,0,0,0,1.381-1.381c1.073.154,2.147-.306,2.3.461a3.931,3.931,0,0,1-1.534,3.067c2.108.115,5.6-.154,6.364-3.681s-2.8-5.6-6.21-5.213a16.194,16.194,0,0,0-8.894,3.526c.153-3.067-1.534-13.493,2.453-15.948,2.3-1.227,4.908,1.993,7.207,1.993s4.185-2.06,4.811-3.191a1.334,1.334,0,0,1,1.811-.374c1.476,1.27,2.451,2.491,3.959,2.491,1.61,0,3.68-2.147,4.983-2.07a67.626,67.626,0,0,1,8.664,2.453,16.176,16.176,0,0,1,.6,7.365,34.037,34.037,0,0,0-7.811.477c-2.453.459-5.671,2.508-6.437,5.116s2.453,4.907,4.753,5.827a9.7,9.7,0,0,1-1.689-3.334l3.3-1.65a1.525,1.525,0,0,0,1.5,1.151,1.507,1.507,0,0,0,1.609-1.61c1.323-.058,4.486-.23,6.786,1.84-1.379-3.565-5.749-3.45-7.015-3.45a19.251,19.251,0,0,0-4.714.92c-.5.176-1.143.45-1.71.7a2.4,2.4,0,0,1,.943-1.93,11.13,11.13,0,0,1,9.89-.459c4.141,1.686,3.987,17.1,3.987,17.1s.766-3.258,0-9.545-2.147-17.213-2.147-17.213h0c-.1-.642-.986-1.418-1.84-1.84-.836-.414-7.207-3.086-8.74-3.086s-2.913,2.147-5.214,2.147-2.76-2.453-4.448-2.453-1.84,3.219-4.6,3.219-4.684-2.948-8.74-1.821c-2.761.766-5.214,6.287-5.06,9.354s3.22,31.9,3.067,34.962c-.075,1.49.213,14.506.564,27.944H734.343V86.558c.087-.028.18-.061.266-.087,3.911-1.15,7.822-4.14,9.2-4.14s1.5,9.547,1.5,9.547.575-7.016.805-10.236,4.831-31.282,5.52-36.113a11.3,11.3,0,0,1,.537-11.577c3.273-5.005,10.274-8.8,26.222-9.411s23,3.431,25.148,5.424a6.31,6.31,0,0,1,2.089,4.409,6.34,6.34,0,0,1,1.744,3.258c.154,1.688-.306,2.684-2.453,5.367,2.147,4.14,6.44,17.328,6.9,20.549s2.606,8.433,3.757,11.883c2.11.385,5.522,1.566,9.926,2.75V110.2ZM763.821,57.182a7.569,7.569,0,0,1,4.983-3.067c2.761-.613,4.524.844,4.677,1.458s-.843.613-2.069.23a7.033,7.033,0,0,0-4.984.844c-1.457.92-2.606,1.533-2.913,1.84S763.553,57.489,763.821,57.182Z" transform="translate(-732.268 -14.196)"/><path class="b" d="M775.793,76.345v-.011S775.671,76.431,775.793,76.345Z" transform="translate(-715.602 9.626)"/></g></g></svg>