<svg xmlns="http://www.w3.org/2000/svg" width="139.966" height="62.286" viewBox="0 0 139.966 62.286"><defs><style>.a{fill:#3bbf9e;}</style></defs><g transform="translate(-143.986 -407.145)"><rect class="a" width="1.992" height="1.992" transform="translate(150.537 437.54)"/><path class="a" d="M214.635,414.987h-8.892l-5.335,13.336,5.148,12.877h8.9L209.3,428.323Z" transform="translate(69.317 9.635)"/><path class="a" d="M189.2,441.2l5.148-12.874-5.333-13.338h-8.905l5.34,13.338L180.308,441.2Z" transform="translate(44.382 9.634)"/><path class="a" d="M226.294,415.836h-8.9l-7.876,19.689V407.145h-8.9v28.1l-7.764-19.409h-8.9l8.9,22.243-8.9,22.245h8.9l7.764-19.411V469.43h8.9v-28.8l7.876,19.689h8.9l-8.9-22.245Z" transform="translate(49.105)"/><path class="a" d="M214.635,414.987h-8.892l-5.335,13.336,5.148,12.877h8.9L209.3,428.323Z" transform="translate(69.317 9.635)"/><path class="a" d="M189.2,441.2l5.148-12.874-5.333-13.338h-8.905l5.34,13.338L180.308,441.2Z" transform="translate(44.382 9.634)"/><path class="a" d="M226.294,415.836h-8.9l-7.876,19.689V407.145h-8.9v28.1l-7.764-19.409h-8.9l8.9,22.243-8.9,22.245h8.9l7.764-19.411V469.43h8.9v-28.8l7.876,19.689h8.9l-8.9-22.245Z" transform="translate(49.105)"/><rect class="a" width="1.992" height="1.992" transform="translate(201.063 421.233)"/><rect class="a" width="1.992" height="1.992" transform="translate(198.431 421.233)"/><rect class="a" width="1.992" height="1.992" transform="translate(172.054 433.903)"/><rect class="a" width="2.556" height="2.556" transform="translate(210.12 441.546)"/><rect class="a" width="2.556" height="2.556" transform="translate(195.812 441.546)"/><rect class="a" width="1.992" height="1.992" transform="translate(169.419 433.903)"/><rect class="a" width="1.992" height="1.992" transform="translate(153.169 437.54)"/><rect class="a" width="1.992" height="1.992" transform="translate(163.674 433.903)"/><path class="a" d="M177.689,422.213c-.6-.022-3.512-.078-4-.16l-.047-.009.472-3.459-2.184,0-.341,2.692c-.087.715-.21.945-1.966.945,0,0-2.966-.047-3.485-.147l-.045-.007.492-3.481-2.188,0-.337,2.685c-.085.691-1.977.945-2.986.945a17.467,17.467,0,0,1-4.138-.55V424a6.768,6.768,0,0,0,1.446.43s.011.4.011.493c.033,1.491-4.736,1.315-7.388,1.174-1.941-.1-3.864-.86-3.864-2.4a14.081,14.081,0,0,1,.234-2.242h-2.053a13.315,13.315,0,0,0-.256,2.578c0,3.109,2.48,4.25,5.961,4.348,3.583.1,9.456-.009,9.494-2.879,0-.169.027-.606.007-.771l-.009-.058h.555c1.625,0,4.192-.457,4.7-1.357l.042-.076.742,1.25a14.546,14.546,0,0,0,2.757.183,9.763,9.763,0,0,0,1.277-.069c1.486-.152,2.356-.562,2.732-1.308l.042-.08.762,1.275c.446.111,3.231.167,3.822.178a3.684,3.684,0,0,0,2.634-.923l.022-.022.029.011a21.03,21.03,0,0,0,5.961.938,7.959,7.959,0,0,0,3.813-.789l.025-.016.027.016a3.421,3.421,0,0,0,1.957.78c.116,0,2.585.009,2.725.009a9.825,9.825,0,0,0,3.9-.793l.018-.007.022.007a10.709,10.709,0,0,0,4.4.793h.149c2.349,0,3.539-1.306,3.539-3.887v-7.281h-2.282v7.281c0,1.012-.4,1.415-1.406,1.431h-.058c-.448,0-1.005,0-1.585-.018l-.094,0,.053-.078a3.405,3.405,0,0,0,.7-1.939c0-1.74-1.177-3.619-3.073-3.619h-.031c-1.816.022-3.372,2.052-3.372,3.7a2.977,2.977,0,0,0,.675,1.856l.06.078-.1,0c-.615.018-1.25.018-1.5.018h-2.38c-.586,0-.715-.136-.715-.136l.022-.058a4.135,4.135,0,0,0,.247-1.446,3.555,3.555,0,0,0-3.539-3.806c-1.582,0-3,.74-6.788,4.95l-.02.02-.025-.007c-.123-.022-.245-.053-.359-.085q-.13-.033-.247-.06l-.047-.011.205-1.529-2.2,0-.116,1.226a.936.936,0,0,1-.916.9Zm9.066.007a23.584,23.584,0,0,1-2.786-.147l-.111-.009.082-.078c2.672-2.44,3.695-2.9,4.642-2.9a1.542,1.542,0,0,1,1.667,1.513c0,1.154-1.012,1.622-3.494,1.622m12.616-.194-.018.011-.018-.007c-.99-.265-1.656-.934-1.656-1.662a1.6,1.6,0,0,1,1.5-1.56,1.5,1.5,0,0,1,1.42,1.6,1.852,1.852,0,0,1-1.23,1.618" transform="translate(1.323 7.818)"/><rect class="a" width="2.264" height="11.148" transform="translate(210.52 421.323)"/><path class="a" d="M151.126,431.278h-3.936l-.731,2.331h-2.474l3.65-11.016h3.347l3.65,11.016h-2.779Zm-.588-1.888-1.379-4.384-1.379,4.384Z" transform="translate(0 18.979)"/><rect class="a" width="2.556" height="11.04" transform="translate(155.932 441.546)"/><path class="a" d="M159.81,433.027c0,2.01-1.785,3.124-4.887,3.124-2.456,0-3.855-.731-3.855-2.028,0-.813.669-1.279,1.785-1.522a1.47,1.47,0,0,1-.894-1.38,2.337,2.337,0,0,1,1.157-1.825,2.425,2.425,0,0,1-1.5-2.293c0-1.785,1.48-3.042,3.63-3.042a4.8,4.8,0,0,1,1.785.305l2.656-.305v1.785l-1.177.12a1.78,1.78,0,0,1,.245.934c0,1.665-1.319,2.9-3.51,2.9a6.045,6.045,0,0,1-1.257-.123,1.056,1.056,0,0,0-.1.406c0,.488.285.628.954.628h1.988c2.048,0,2.982.854,2.982,2.313m-2.474.508c0-.468-.468-.671-1.279-.671h-1.868a.836.836,0,0,0-.446.691c0,.488.488.891,1.665.891,1.217,0,1.928-.305,1.928-.911m-3.247-6.594a1.137,1.137,0,0,0,2.273-.02,1.034,1.034,0,0,0-1.116-1.074,1.071,1.071,0,0,0-1.157,1.094" transform="translate(8.699 20.784)"/><path class="a" d="M155.253,428.382a4.061,4.061,0,0,1,4.3-4.319c2.636,0,4.281,1.52,4.281,3.956a4.057,4.057,0,0,1-4.281,4.319c-2.676,0-4.3-1.52-4.3-3.956m5.944-.183c0-1.3-.588-2.171-1.642-2.171-1.076,0-1.662.874-1.662,2.171s.586,2.173,1.662,2.173c1.054,0,1.642-.874,1.642-2.173" transform="translate(13.842 20.785)"/><path class="a" d="M159.7,431.184l.443-1.912a4.842,4.842,0,0,0,2.572.811c.715,0,1.025-.174,1.025-.524,0-.368-.252-.521-1.257-.811l-.348-.116c-1.683-.446-2.262-1.139-2.262-2.224,0-1.333,1.083-2.434,3.519-2.434a7.29,7.29,0,0,1,2.03.25v1.914a7.34,7.34,0,0,0-2.186-.388c-.675,0-1.1.156-1.1.466,0,.328.252.481,1.141.735l.368.1c1.662.464,2.376,1.217,2.376,2.358,0,1.489-1.217,2.436-3.4,2.436a6.135,6.135,0,0,1-2.919-.658" transform="translate(19.309 20.677)"/><path class="a" d="M170.941,430.043l-.27,1.587a3.508,3.508,0,0,1-1.141.194c-1.181,0-1.665-.678-1.665-1.471l-.733,1.179a4.411,4.411,0,0,1-1.625.33c-1.527,0-2.474-.793-2.474-2.222,0-1.279.889-2.38,3.189-2.38h1.431v-.252c0-.773-.406-1.121-1.489-1.121a7.364,7.364,0,0,0-2.494.463l.328-1.932a9.292,9.292,0,0,1,2.806-.444c2.26,0,3.285.927,3.285,2.763v2.841c0,.348.156.524.484.524a1.123,1.123,0,0,0,.368-.06m-3.287-.348v-1.1h-1.295c-.7,0-.967.27-.967.7,0,.484.31.753,1.025.753a2.162,2.162,0,0,0,1.237-.348" transform="translate(23.402 20.677)"/><path class="a" d="M177.072,429.4c0,2.436-1.411,4.174-4.348,4.174a7.035,7.035,0,0,1-3.325-.751V422.582h2.434V425.8l-.076,1.529.793-1.393a4.043,4.043,0,0,1,1.333-.252c2.01,0,3.189,1.471,3.189,3.713m-2.512.136c0-1.2-.562-1.954-1.529-1.954a2.073,2.073,0,0,0-1.2.408v3.421a1.769,1.769,0,0,0,1.025.272c1.083,0,1.7-.755,1.7-2.146" transform="translate(31.221 18.966)"/><rect class="a" width="2.681" height="6.975" transform="translate(210.057 445.611)"/><rect class="a" width="2.681" height="6.975" transform="translate(195.752 445.611)"/></g></svg>