<svg xmlns="http://www.w3.org/2000/svg" xmlns:xlink="http://www.w3.org/1999/xlink" width="95.536" height="83.805" viewBox="0 0 95.536 83.805"><defs><style>.a{fill:#fff;}.b{fill:url(#a);}.c{fill:url(#b);}</style><linearGradient id="a" x1="0.148" y1="0.856" x2="0.855" y2="0.145" gradientUnits="objectBoundingBox"><stop offset="0" stop-color="#16987e"/><stop offset="1" stop-color="#3bbf9e" stop-opacity="0.2"/></linearGradient><linearGradient id="b" x1="-0.127" y1="0.945" x2="0.738" y2="-0.167" gradientUnits="objectBoundingBox"><stop offset="0" stop-color="#3bbf9e" stop-opacity="0.2"/><stop offset="0.421" stop-color="#16987e"/></linearGradient></defs><g transform="translate(-5622.296 -2316.24)"><g transform="translate(5671.142 2346.505)"><path class="a" d="M6450.592,2828.143v.073l-2.182,3.364v2.455h-1.254v-2.418l-2.127-3.4v-.073h1.455l1.327,2.273,1.382-2.273Z" transform="translate(-6445.028 -2828.015)"/><path class="a" d="M6555.764,2832.979h2.728v1.054h-3.982v-5.891h3.937v1.046h-2.682v1.327h2.318l-.147,1.036h-2.171Z" transform="translate(-6548.009 -2828.015)"/><path class="a" d="M6636.787,2828.143l2.119,5.818v.073h-1.373l-.473-1.409h-2.182l-.463,1.409h-1.354v-.073l2.118-5.818Zm-1.563,3.446h1.491l-.754-2.245Z" transform="translate(-6621.896 -2828.015)"/><path class="a" d="M6752.114,2833.961v.073h-1.442l-1.479-2.146h-.5v2.146h-1.254v-5.891h1.973a3.118,3.118,0,0,1,1.3.241,1.729,1.729,0,0,1,.778.655,1.762,1.762,0,0,1,.254.941,1.844,1.844,0,0,1-.309,1.068,1.813,1.813,0,0,1-.909.668Zm-3.418-3.045h.566a1.5,1.5,0,0,0,.859-.209.78.78,0,0,0,.3-.691.746.746,0,0,0-.269-.627,1.2,1.2,0,0,0-.752-.209h-.706Z" transform="translate(-6729.487 -2828.015)"/><path class="a" d="M6832.272,2831.435l.582-.9a3.081,3.081,0,0,0,1.655.537,1.7,1.7,0,0,0,.813-.164.529.529,0,0,0,.3-.491.553.553,0,0,0-.1-.332.94.94,0,0,0-.336-.254q-.242-.123-.723-.313l-.209-.082a6.614,6.614,0,0,1-.937-.437,1.645,1.645,0,0,1-.563-.536,1.508,1.508,0,0,1-.209-.827,1.357,1.357,0,0,1,.318-.923,1.856,1.856,0,0,1,.818-.541,3.225,3.225,0,0,1,1.063-.173,3.525,3.525,0,0,1,1.05.168,4,4,0,0,1,1.032.5l-.587.891a4.278,4.278,0,0,0-.768-.382,2.157,2.157,0,0,0-.723-.118,1.2,1.2,0,0,0-.655.146.448.448,0,0,0-.221.391.453.453,0,0,0,.09.277.942.942,0,0,0,.325.246,6.164,6.164,0,0,0,.678.286l.2.073a8.111,8.111,0,0,1,.936.409,1.7,1.7,0,0,1,.6.546,1.8,1.8,0,0,1-.065,1.914,1.845,1.845,0,0,1-.841.6,3.4,3.4,0,0,1-1.2.2A3.778,3.778,0,0,1,6832.272,2831.435Z" transform="translate(-6809.281 -2825.999)"/></g><path class="b" d="M6146.607,2382.207c-18.712,0-33.544-14.573-33.544-32.941,0-18.626,14.66-33.027,33.631-33.027a32.791,32.791,0,0,1,32.768,32.941C6179.462,2367.806,6165.147,2382.207,6146.607,2382.207Zm-.028-53.075a20.089,20.089,0,1,0,20.089,20.089A20.089,20.089,0,0,0,6146.58,2329.132Z" transform="translate(-461.63 0)"/><path class="c" d="M5664.86,2659.464a20.016,20.016,0,0,1,5.123-13.4h-45.217V2660.2h26.83l-29.3,50.084h18.4l25.3-44.157A20.048,20.048,0,0,1,5664.86,2659.464Z" transform="translate(0 -310.242)"/></g></svg>