<svg xmlns="http://www.w3.org/2000/svg" width="20.817" height="20.5" viewBox="0 0 20.817 20.5">
  <g id="noun_print_1039550" transform="translate(-1.898 -2.052)">
    <g id="Group_383" data-name="Group 383" transform="translate(2.148 2.302)">
      <path id="Path_577" data-name="Path 577" d="M21.513,8.016H17.7V3.254a.953.953,0,0,0-.952-.952H7.861a.953.953,0,0,0-.952.952V8.016H3.1a.953.953,0,0,0-.952.952v8.89a.953.953,0,0,0,.952.952H6.91V21.35a.953.953,0,0,0,.952.952h8.89a.953.953,0,0,0,.952-.952V18.81h3.81a.953.953,0,0,0,.952-.952V8.968A.953.953,0,0,0,21.513,8.016ZM7.545,3.254a.317.317,0,0,1,.317-.317h8.89a.317.317,0,0,1,.317.317V8.016H7.545Zm9.523,18.1a.317.317,0,0,1-.317.317H7.861a.317.317,0,0,1-.317-.317V15a.317.317,0,0,1,.317-.317h8.89a.317.317,0,0,1,.317.317Zm4.762-3.491a.317.317,0,0,1-.317.317H17.7V15a.953.953,0,0,0-.952-.952H7.861A.953.953,0,0,0,6.91,15v3.175H3.1a.317.317,0,0,1-.317-.317V8.968A.317.317,0,0,1,3.1,8.651H21.513a.317.317,0,0,1,.317.317Z" transform="translate(-2.148 -2.302)" fill="#3b4559" stroke="#3b4559" stroke-width="0.5"/>
      <path id="Path_578" data-name="Path 578" d="M5.354,10H4.02a.333.333,0,1,0,0,.667H5.354a.333.333,0,1,0,0-.667Z" transform="translate(-2.021 -2.076)" fill="#3b4559" stroke="#3b4559" stroke-width="0.5"/>
    </g>
  </g>
</svg>
