<svg id="noun_Share_2928455" xmlns="http://www.w3.org/2000/svg" width="21" height="21" viewBox="0 0 21 21">
  <g id="Group_384" data-name="Group 384">
    <rect id="Rectangle_673" data-name="Rectangle 673" width="21" height="21" fill="none"/>
  </g>
  <g id="Group_395" data-name="Group 395" transform="translate(0.656 0.656)">
    <g id="Group_386" data-name="Group 386" transform="translate(0 6.563)">
      <g id="Group_385" data-name="Group 385">
        <path id="Path_579" data-name="Path 579" d="M4.281,17.563a3.281,3.281,0,1,1,3.281-3.281A3.285,3.285,0,0,1,4.281,17.563Zm0-5.25A1.969,1.969,0,1,0,6.25,14.281,1.971,1.971,0,0,0,4.281,12.313Z" transform="translate(-1 -11)" fill="#3b4559"/>
      </g>
    </g>
    <g id="Group_388" data-name="Group 388" transform="translate(13.125)">
      <g id="Group_387" data-name="Group 387">
        <path id="Path_580" data-name="Path 580" d="M24.281,7.563a3.281,3.281,0,1,1,3.281-3.281A3.285,3.285,0,0,1,24.281,7.563Zm0-5.25A1.969,1.969,0,1,0,26.25,4.281,1.971,1.971,0,0,0,24.281,2.313Z" transform="translate(-21 -1)" fill="#3b4559"/>
      </g>
    </g>
    <g id="Group_390" data-name="Group 390" transform="translate(13.125 13.125)">
      <g id="Group_389" data-name="Group 389">
        <path id="Path_581" data-name="Path 581" d="M24.281,27.563a3.281,3.281,0,1,1,3.281-3.281A3.285,3.285,0,0,1,24.281,27.563Zm0-5.25a1.969,1.969,0,1,0,1.969,1.969A1.971,1.971,0,0,0,24.281,22.313Z" transform="translate(-21 -21)" fill="#3b4559"/>
      </g>
    </g>
    <g id="Group_392" data-name="Group 392" transform="translate(5.25 3.938)">
      <g id="Group_391" data-name="Group 391">
        <path id="Path_582" data-name="Path 582" d="M9.657,12.907a.656.656,0,0,1-.331-1.223L17.2,7.09a.656.656,0,0,1,.661,1.134L9.987,12.817A.655.655,0,0,1,9.657,12.907Z" transform="translate(-9 -7.001)" fill="#3b4559"/>
      </g>
    </g>
    <g id="Group_394" data-name="Group 394" transform="translate(5.25 9.844)">
      <g id="Group_393" data-name="Group 393">
        <path id="Path_583" data-name="Path 583" d="M17.531,21.906a.655.655,0,0,1-.33-.089L9.325,17.223a.656.656,0,0,1,.661-1.134l7.875,4.594a.656.656,0,0,1-.331,1.223Z" transform="translate(-9 -16)" fill="#3b4559"/>
      </g>
    </g>
  </g>
</svg>
